<?xml version="1.0" encoding="utf-8"?>
<!-- Generator: Adobe Illustrator 23.0.5, SVG Export Plug-In . SVG Version: 6.00 Build 0)  -->
<svg version="1.1" id="Capa_1" xmlns="http://www.w3.org/2000/svg" xmlns:xlink="http://www.w3.org/1999/xlink" x="0px" y="0px"
	 viewBox="0 0 24 24" style="enable-background:new 0 0 24 24;" xml:space="preserve">
<path d="M16.3,7.1L10,9.8c-0.1,0-0.2,0.1-0.2,0.2l-2.7,6.2c-0.1,0.2,0,0.4,0.1,0.5c0.1,0.1,0.3,0.2,0.5,0.1l6.2-2.7
	c0.1,0,0.2-0.1,0.2-0.2l2.7-6.2c0.1-0.2,0-0.4-0.1-0.5C16.6,7.1,16.4,7.1,16.3,7.1z M14.3,9.9l-1.2,2.9c0,0-0.1,0.1-0.1,0.1
	c0,0-0.1,0-0.1,0l-1.6-1.6c0,0-0.1-0.1,0-0.1c0,0,0-0.1,0.1-0.1l2.9-1.2c0.1,0,0.1,0,0.2,0C14.3,9.8,14.3,9.8,14.3,9.9z M12,0
	C8.9,0,5.9,1.2,3.5,3.5c-4.7,4.7-4.7,12.3,0,17C5.9,22.8,8.9,24,12,24c3.1,0,6.1-1.2,8.5-3.5c4.7-4.7,4.7-12.3,0-17
	C18.1,1.2,15.1,0,12,0z M19.4,19.4c-2,2-4.6,3.1-7.4,3.1c-2.8,0-5.4-1.1-7.4-3.1c-2-2-3.1-4.6-3.1-7.4s1.1-5.4,3.1-7.4
	c2-2,4.6-3.1,7.4-3.1c2.8,0,5.4,1.1,7.4,3.1s3.1,4.6,3.1,7.4S21.4,17.4,19.4,19.4z"/>
</svg>
